{
	"asset":{
		"generator":"Khronos glTF Blender I/O v3.6.27",
		"version":"2.0"
	},
	"scene":0,
	"scenes":[
		{
			"name":"Scene",
			"nodes":[
				0,
				1,
				2
			]
		}
	],
	"nodes":[
		{
			"mesh":0,
			"name":"Male 68in 160lbs-A-pose",
			"rotation":[
				0.7071068286895752,
				0,
				0,
				0.7071068286895752
			],
			"scale":[
				4.255766868591309,
				4.255766868591309,
				4.255766868591309
			]
		},
		{
			"mesh":1,
			"name":"Male 68in 160lbs-A-pose.001",
			"rotation":[
				0.7071068286895752,
				0,
				0,
				0.7071068286895752
			],
			"scale":[
				4.255766868591309,
				4.255766868591309,
				4.255766868591309
			],
			"translation":[
				9.976644515991211,
				0,
				0
			]
		},
		{
			"mesh":2,
			"name":"Male 68in 160lbs-A-pose.002",
			"rotation":[
				0.7071068286895752,
				0,
				0,
				0.7071068286895752
			],
			"scale":[
				4.255766868591309,
				4.255766868591309,
				4.255766868591309
			],
			"translation":[
				-10.543025970458984,
				0,
				0
			]
		}
	],
	"materials":[
		{
			"doubleSided":true,
			"name":"Material.002",
			"pbrMetallicRoughness":{
				"baseColorTexture":{
					"index":0
				},
				"metallicFactor":0,
				"roughnessFactor":0.5
			}
		},
		{
			"doubleSided":true,
			"name":"Material.003",
			"pbrMetallicRoughness":{
				"baseColorTexture":{
					"index":1
				},
				"metallicFactor":0,
				"roughnessFactor":0.5
			}
		},
		{
			"doubleSided":true,
			"name":"Material.001",
			"pbrMetallicRoughness":{
				"baseColorTexture":{
					"index":2
				},
				"metallicFactor":0,
				"roughnessFactor":0.5
			}
		}
	],
	"meshes":[
		{
			"name":"Male 68in 160lbs-A-pose",
			"primitives":[
				{
					"attributes":{
						"POSITION":0,
						"NORMAL":1,
						"TEXCOORD_0":2
					},
					"indices":3,
					"material":0
				}
			]
		},
		{
			"name":"Male 68in 160lbs-A-pose.001",
			"primitives":[
				{
					"attributes":{
						"POSITION":4,
						"NORMAL":5,
						"TEXCOORD_0":6
					},
					"indices":3,
					"material":1
				}
			]
		},
		{
			"name":"Male 68in 160lbs-A-pose.002",
			"primitives":[
				{
					"attributes":{
						"POSITION":7,
						"NORMAL":8,
						"TEXCOORD_0":9
					},
					"indices":3,
					"material":2
				}
			]
		}
	],
	"textures":[
		{
			"sampler":0,
			"source":0
		},
		{
			"sampler":0,
			"source":1
		},
		{
			"sampler":0,
			"source":2
		}
	],
	"images":[
		{
			"bufferView":4,
			"mimeType":"image/png",
			"name":"Contra-lateral"
		},
		{
			"bufferView":8,
			"mimeType":"image/png",
			"name":"Hip Flex"
		},
		{
			"bufferView":12,
			"mimeType":"image/png",
			"name":"Laying Down.001"
		}
	],
	"accessors":[
		{
			"bufferView":0,
			"componentType":5126,
			"count":17170,
			"max":[
				0.5071370005607605,
				0.1996929943561554,
				0
			],
			"min":[
				-0.5079219937324524,
				-0.14652900397777557,
				-1.7229570150375366
			],
			"type":"VEC3"
		},
		{
			"bufferView":1,
			"componentType":5126,
			"count":17170,
			"type":"VEC3"
		},
		{
			"bufferView":2,
			"componentType":5126,
			"count":17170,
			"type":"VEC2"
		},
		{
			"bufferView":3,
			"componentType":5123,
			"count":62724,
			"type":"SCALAR"
		},
		{
			"bufferView":5,
			"componentType":5126,
			"count":17170,
			"max":[
				0.5071370005607605,
				0.1996929943561554,
				0
			],
			"min":[
				-0.5079219937324524,
				-0.14652900397777557,
				-1.7229570150375366
			],
			"type":"VEC3"
		},
		{
			"bufferView":6,
			"componentType":5126,
			"count":17170,
			"type":"VEC3"
		},
		{
			"bufferView":7,
			"componentType":5126,
			"count":17170,
			"type":"VEC2"
		},
		{
			"bufferView":9,
			"componentType":5126,
			"count":17170,
			"max":[
				0.5071370005607605,
				0.1996929943561554,
				0
			],
			"min":[
				-0.5079219937324524,
				-0.14652900397777557,
				-1.7229570150375366
			],
			"type":"VEC3"
		},
		{
			"bufferView":10,
			"componentType":5126,
			"count":17170,
			"type":"VEC3"
		},
		{
			"bufferView":11,
			"componentType":5126,
			"count":17170,
			"type":"VEC2"
		}
	],
	"bufferViews":[
		{
			"buffer":0,
			"byteLength":206040,
			"byteOffset":0,
			"target":34962
		},
		{
			"buffer":0,
			"byteLength":206040,
			"byteOffset":206040,
			"target":34962
		},
		{
			"buffer":0,
			"byteLength":137360,
			"byteOffset":412080,
			"target":34962
		},
		{
			"buffer":0,
			"byteLength":125448,
			"byteOffset":549440,
			"target":34963
		},
		{
			"buffer":0,
			"byteLength":218101,
			"byteOffset":674888
		},
		{
			"buffer":0,
			"byteLength":206040,
			"byteOffset":892992,
			"target":34962
		},
		{
			"buffer":0,
			"byteLength":206040,
			"byteOffset":1099032,
			"target":34962
		},
		{
			"buffer":0,
			"byteLength":137360,
			"byteOffset":1305072,
			"target":34962
		},
		{
			"buffer":0,
			"byteLength":272195,
			"byteOffset":1442432
		},
		{
			"buffer":0,
			"byteLength":206040,
			"byteOffset":1714628,
			"target":34962
		},
		{
			"buffer":0,
			"byteLength":206040,
			"byteOffset":1920668,
			"target":34962
		},
		{
			"buffer":0,
			"byteLength":137360,
			"byteOffset":2126708,
			"target":34962
		},
		{
			"buffer":0,
			"byteLength":263920,
			"byteOffset":2264068
		}
	],
	"samplers":[
		{
			"magFilter":9729,
			"minFilter":9987
		}
	],
	"buffers":[
		{
			"byteLength":2527988,
			"uri":"data:application/octet-stream;base64,"
		}
	]
}
