{
	"asset":{
		"generator":"Khronos glTF Blender I/O v3.6.27",
		"version":"2.0"
	},
	"scene":0,
	"scenes":[
		{
			"name":"Scene",
			"nodes":[
				0
			]
		}
	],
	"nodes":[
		{
			"mesh":0,
			"name":"Male 66in 160lbs-A-pose",
			"rotation":[
				0.7071068286895752,
				0,
				0,
				0.7071068286895752
			],
			"scale":[
				3,
				3,
				3
			]
		}
	],
	"materials":[
		{
			"doubleSided":true,
			"name":"Material.001",
			"pbrMetallicRoughness":{
				"baseColorTexture":{
					"index":0
				},
				"metallicFactor":0,
				"roughnessFactor":0.5
			}
		}
	],
	"meshes":[
		{
			"name":"Male 66in 160lbs-A-pose",
			"primitives":[
				{
					"attributes":{
						"POSITION":0,
						"NORMAL":1,
						"TEXCOORD_0":2
					},
					"indices":3,
					"material":0
				}
			]
		}
	],
	"textures":[
		{
			"sampler":0,
			"source":0
		}
	],
	"images":[
		{
			"bufferView":4,
			"mimeType":"image/png",
			"name":"Pain Points Only"
		}
	],
	"accessors":[
		{
			"bufferView":0,
			"componentType":5126,
			"count":16936,
			"max":[
				0.5050870180130005,
				0.19862599670886993,
				0
			],
			"min":[
				-0.5057820081710815,
				-0.14468799531459808,
				-1.6746259927749634
			],
			"type":"VEC3"
		},
		{
			"bufferView":1,
			"componentType":5126,
			"count":16936,
			"type":"VEC3"
		},
		{
			"bufferView":2,
			"componentType":5126,
			"count":16936,
			"type":"VEC2"
		},
		{
			"bufferView":3,
			"componentType":5123,
			"count":62724,
			"type":"SCALAR"
		}
	],
	"bufferViews":[
		{
			"buffer":0,
			"byteLength":203232,
			"byteOffset":0,
			"target":34962
		},
		{
			"buffer":0,
			"byteLength":203232,
			"byteOffset":203232,
			"target":34962
		},
		{
			"buffer":0,
			"byteLength":135488,
			"byteOffset":406464,
			"target":34962
		},
		{
			"buffer":0,
			"byteLength":125448,
			"byteOffset":541952,
			"target":34963
		},
		{
			"buffer":0,
			"byteLength":115382,
			"byteOffset":667400
		}
	],
	"samplers":[
		{
			"magFilter":9729,
			"minFilter":9987
		}
	],
	"buffers":[
		{
			"byteLength":782784,
			"uri":"data:application/octet-stream;base64,"
		}
	]
}
