{
	"asset":{
		"generator":"Khronos glTF Blender I/O v3.6.27",
		"version":"2.0"
	},
	"scene":0,
	"scenes":[
		{
			"name":"Scene",
			"nodes":[
				0
			]
		}
	],
	"nodes":[
		{
			"mesh":0,
			"name":"Male 68in 160lbs-A-pose",
			"rotation":[
				0.7071068286895752,
				0,
				0,
				0.7071068286895752
			],
			"scale":[
				4.255766868591309,
				4.255766868591309,
				4.255766868591309
			]
		}
	],
	"materials":[
		{
			"doubleSided":true,
			"name":"Material.002",
			"pbrMetallicRoughness":{
				"baseColorTexture":{
					"index":0
				},
				"metallicFactor":0,
				"roughnessFactor":0.5
			}
		}
	],
	"meshes":[
		{
			"name":"Male 68in 160lbs-A-pose",
			"primitives":[
				{
					"attributes":{
						"POSITION":0,
						"NORMAL":1,
						"TEXCOORD_0":2
					},
					"indices":3,
					"material":0
				}
			]
		}
	],
	"textures":[
		{
			"sampler":0,
			"source":0
		}
	],
	"images":[
		{
			"bufferView":4,
			"mimeType":"image/png",
			"name":"Laying Down.red+green+blue"
		}
	],
	"accessors":[
		{
			"bufferView":0,
			"componentType":5126,
			"count":17170,
			"max":[
				0.5071370005607605,
				0.1996929943561554,
				0
			],
			"min":[
				-0.5079219937324524,
				-0.14652900397777557,
				-1.7229570150375366
			],
			"type":"VEC3"
		},
		{
			"bufferView":1,
			"componentType":5126,
			"count":17170,
			"type":"VEC3"
		},
		{
			"bufferView":2,
			"componentType":5126,
			"count":17170,
			"type":"VEC2"
		},
		{
			"bufferView":3,
			"componentType":5123,
			"count":62724,
			"type":"SCALAR"
		}
	],
	"bufferViews":[
		{
			"buffer":0,
			"byteLength":206040,
			"byteOffset":0,
			"target":34962
		},
		{
			"buffer":0,
			"byteLength":206040,
			"byteOffset":206040,
			"target":34962
		},
		{
			"buffer":0,
			"byteLength":137360,
			"byteOffset":412080,
			"target":34962
		},
		{
			"buffer":0,
			"byteLength":125448,
			"byteOffset":549440,
			"target":34963
		},
		{
			"buffer":0,
			"byteLength":312712,
			"byteOffset":674888
		}
	],
	"samplers":[
		{
			"magFilter":9728,
			"minFilter":9984
		}
	],
	"buffers":[
		{
			"byteLength":987600,
			"uri":"data:application/octet-stream;base64,"
		}
	]
}
