{
	"asset":{
		"generator":"Khronos glTF Blender I/O v3.6.27",
		"version":"2.0"
	},
	"scene":0,
	"scenes":[
		{
			"name":"Scene",
			"nodes":[
				0,
				1,
				2
			]
		}
	],
	"nodes":[
		{
			"mesh":0,
			"name":"Female 60in 130lbs",
			"rotation":[
				0.7071068286895752,
				0,
				0,
				0.7071068286895752
			],
			"scale":[
				3,
				3,
				3
			]
		},
		{
			"mesh":1,
			"name":"Female 60in 130lbs.001",
			"rotation":[
				0.7071068286895752,
				0,
				0,
				0.7071068286895752
			],
			"scale":[
				3,
				3,
				3
			],
			"translation":[
				3.821955680847168,
				0,
				0
			]
		},
		{
			"mesh":2,
			"name":"Female 60in 130lbs.002",
			"rotation":[
				0.7071068286895752,
				0,
				0,
				0.7071068286895752
			],
			"scale":[
				3,
				3,
				3
			],
			"translation":[
				-4.25879430770874,
				0,
				0
			]
		}
	],
	"materials":[
		{
			"doubleSided":true,
			"name":"Material.002",
			"pbrMetallicRoughness":{
				"baseColorTexture":{
					"index":0
				},
				"metallicFactor":0,
				"roughnessFactor":0.5
			}
		},
		{
			"doubleSided":true,
			"name":"Material.003",
			"pbrMetallicRoughness":{
				"baseColorTexture":{
					"index":1
				},
				"metallicFactor":0,
				"roughnessFactor":0.5
			}
		},
		{
			"doubleSided":true,
			"name":"Material.001",
			"pbrMetallicRoughness":{
				"baseColorTexture":{
					"index":2
				},
				"metallicFactor":0,
				"roughnessFactor":0.5
			}
		}
	],
	"meshes":[
		{
			"name":"Female 60in 130lbs",
			"primitives":[
				{
					"attributes":{
						"POSITION":0,
						"NORMAL":1,
						"TEXCOORD_0":2
					},
					"indices":3,
					"material":0
				}
			]
		},
		{
			"name":"Female 60in 130lbs.001",
			"primitives":[
				{
					"attributes":{
						"POSITION":4,
						"NORMAL":5,
						"TEXCOORD_0":6
					},
					"indices":3,
					"material":1
				}
			]
		},
		{
			"name":"Female 60in 130lbs.002",
			"primitives":[
				{
					"attributes":{
						"POSITION":7,
						"NORMAL":8,
						"TEXCOORD_0":9
					},
					"indices":3,
					"material":2
				}
			]
		}
	],
	"textures":[
		{
			"sampler":0,
			"source":0
		},
		{
			"sampler":0,
			"source":1
		},
		{
			"sampler":0,
			"source":2
		}
	],
	"images":[
		{
			"bufferView":4,
			"mimeType":"image/png",
			"name":"Cross-Leg"
		},
		{
			"bufferView":8,
			"mimeType":"image/png",
			"name":"Hip Flex"
		},
		{
			"bufferView":12,
			"mimeType":"image/png",
			"name":"Supine"
		}
	],
	"accessors":[
		{
			"bufferView":0,
			"componentType":5126,
			"count":17173,
			"max":[
				0.44668999314308167,
				0.1785700023174286,
				0
			],
			"min":[
				-0.447176992893219,
				-0.14702199399471283,
				-1.5254080295562744
			],
			"type":"VEC3"
		},
		{
			"bufferView":1,
			"componentType":5126,
			"count":17173,
			"type":"VEC3"
		},
		{
			"bufferView":2,
			"componentType":5126,
			"count":17173,
			"type":"VEC2"
		},
		{
			"bufferView":3,
			"componentType":5123,
			"count":62724,
			"type":"SCALAR"
		},
		{
			"bufferView":5,
			"componentType":5126,
			"count":17173,
			"max":[
				0.44668999314308167,
				0.1785700023174286,
				0
			],
			"min":[
				-0.447176992893219,
				-0.14702199399471283,
				-1.5254080295562744
			],
			"type":"VEC3"
		},
		{
			"bufferView":6,
			"componentType":5126,
			"count":17173,
			"type":"VEC3"
		},
		{
			"bufferView":7,
			"componentType":5126,
			"count":17173,
			"type":"VEC2"
		},
		{
			"bufferView":9,
			"componentType":5126,
			"count":17173,
			"max":[
				0.44668999314308167,
				0.1785700023174286,
				0
			],
			"min":[
				-0.447176992893219,
				-0.14702199399471283,
				-1.5254080295562744
			],
			"type":"VEC3"
		},
		{
			"bufferView":10,
			"componentType":5126,
			"count":17173,
			"type":"VEC3"
		},
		{
			"bufferView":11,
			"componentType":5126,
			"count":17173,
			"type":"VEC2"
		}
	],
	"bufferViews":[
		{
			"buffer":0,
			"byteLength":206076,
			"byteOffset":0,
			"target":34962
		},
		{
			"buffer":0,
			"byteLength":206076,
			"byteOffset":206076,
			"target":34962
		},
		{
			"buffer":0,
			"byteLength":137384,
			"byteOffset":412152,
			"target":34962
		},
		{
			"buffer":0,
			"byteLength":125448,
			"byteOffset":549536,
			"target":34963
		},
		{
			"buffer":0,
			"byteLength":108768,
			"byteOffset":674984
		},
		{
			"buffer":0,
			"byteLength":206076,
			"byteOffset":783752,
			"target":34962
		},
		{
			"buffer":0,
			"byteLength":206076,
			"byteOffset":989828,
			"target":34962
		},
		{
			"buffer":0,
			"byteLength":137384,
			"byteOffset":1195904,
			"target":34962
		},
		{
			"buffer":0,
			"byteLength":138744,
			"byteOffset":1333288
		},
		{
			"buffer":0,
			"byteLength":206076,
			"byteOffset":1472032,
			"target":34962
		},
		{
			"buffer":0,
			"byteLength":206076,
			"byteOffset":1678108,
			"target":34962
		},
		{
			"buffer":0,
			"byteLength":137384,
			"byteOffset":1884184,
			"target":34962
		},
		{
			"buffer":0,
			"byteLength":154384,
			"byteOffset":2021568
		}
	],
	"samplers":[
		{
			"magFilter":9729,
			"minFilter":9987
		}
	],
	"buffers":[
		{
			"byteLength":2175952,
			"uri":"data:application/octet-stream;base64,"
		}
	]
}
