{
	"asset":{
		"generator":"Khronos glTF Blender I/O v3.6.27",
		"version":"2.0"
	},
	"scene":0,
	"scenes":[
		{
			"name":"Scene",
			"nodes":[
				0
			]
		}
	],
	"nodes":[
		{
			"mesh":0,
			"name":"Female 62in 150lbs",
			"rotation":[
				0.7071068286895752,
				0,
				0,
				0.7071068286895752
			],
			"scale":[
				3,
				3,
				3
			]
		}
	],
	"materials":[
		{
			"doubleSided":true,
			"name":"Material.001",
			"pbrMetallicRoughness":{
				"baseColorTexture":{
					"index":0
				},
				"metallicFactor":0,
				"roughnessFactor":0.5
			}
		}
	],
	"meshes":[
		{
			"name":"Female 62in 150lbs",
			"primitives":[
				{
					"attributes":{
						"POSITION":0,
						"NORMAL":1,
						"TEXCOORD_0":2
					},
					"indices":3,
					"material":0
				}
			]
		}
	],
	"textures":[
		{
			"sampler":0,
			"source":0
		}
	],
	"images":[
		{
			"bufferView":4,
			"mimeType":"image/png",
			"name":"Needle"
		}
	],
	"accessors":[
		{
			"bufferView":0,
			"componentType":5126,
			"count":17000,
			"max":[
				0.45393601059913635,
				0.18483200669288635,
				0
			],
			"min":[
				-0.4545010030269623,
				-0.14587700366973877,
				-1.5751069784164429
			],
			"type":"VEC3"
		},
		{
			"bufferView":1,
			"componentType":5126,
			"count":17000,
			"type":"VEC3"
		},
		{
			"bufferView":2,
			"componentType":5126,
			"count":17000,
			"type":"VEC2"
		},
		{
			"bufferView":3,
			"componentType":5123,
			"count":62724,
			"type":"SCALAR"
		}
	],
	"bufferViews":[
		{
			"buffer":0,
			"byteLength":204000,
			"byteOffset":0,
			"target":34962
		},
		{
			"buffer":0,
			"byteLength":204000,
			"byteOffset":204000,
			"target":34962
		},
		{
			"buffer":0,
			"byteLength":136000,
			"byteOffset":408000,
			"target":34962
		},
		{
			"buffer":0,
			"byteLength":125448,
			"byteOffset":544000,
			"target":34963
		},
		{
			"buffer":0,
			"byteLength":108677,
			"byteOffset":669448
		}
	],
	"samplers":[
		{
			"magFilter":9729,
			"minFilter":9987
		}
	],
	"buffers":[
		{
			"byteLength":778128,
			"uri":"data:application/octet-stream;base64,"
		}
	]
}
