{
	"asset":{
		"generator":"Khronos glTF Blender I/O v3.6.27",
		"version":"2.0"
	},
	"scene":0,
	"scenes":[
		{
			"name":"Scene",
			"nodes":[
				0
			]
		}
	],
	"nodes":[
		{
			"mesh":0,
			"name":"mc-Female_61in_250lbs-a-pose",
			"rotation":[
				0.7071068286895752,
				0,
				0,
				0.7071068286895752
			],
			"scale":[
				3,
				3,
				3
			]
		}
	],
	"materials":[
		{
			"doubleSided":true,
			"name":"Material.001",
			"pbrMetallicRoughness":{
				"baseColorTexture":{
					"index":0
				},
				"metallicFactor":0,
				"roughnessFactor":0.5
			}
		}
	],
	"meshes":[
		{
			"name":"mc-Female_61in_250lbs-a-pose",
			"primitives":[
				{
					"attributes":{
						"POSITION":0,
						"NORMAL":1,
						"TEXCOORD_0":2
					},
					"indices":3,
					"material":0
				}
			]
		}
	],
	"textures":[
		{
			"sampler":0,
			"source":0
		}
	],
	"images":[
		{
			"bufferView":4,
			"mimeType":"image/png",
			"name":"Bent"
		}
	],
	"accessors":[
		{
			"bufferView":0,
			"componentType":5126,
			"count":17170,
			"max":[
				0.441210001707077,
				0.24981999397277832,
				0
			],
			"min":[
				-0.4391250014305115,
				-0.18284699320793152,
				-1.5538009405136108
			],
			"type":"VEC3"
		},
		{
			"bufferView":1,
			"componentType":5126,
			"count":17170,
			"type":"VEC3"
		},
		{
			"bufferView":2,
			"componentType":5126,
			"count":17170,
			"type":"VEC2"
		},
		{
			"bufferView":3,
			"componentType":5123,
			"count":62724,
			"type":"SCALAR"
		}
	],
	"bufferViews":[
		{
			"buffer":0,
			"byteLength":206040,
			"byteOffset":0,
			"target":34962
		},
		{
			"buffer":0,
			"byteLength":206040,
			"byteOffset":206040,
			"target":34962
		},
		{
			"buffer":0,
			"byteLength":137360,
			"byteOffset":412080,
			"target":34962
		},
		{
			"buffer":0,
			"byteLength":125448,
			"byteOffset":549440,
			"target":34963
		},
		{
			"buffer":0,
			"byteLength":131989,
			"byteOffset":674888
		}
	],
	"samplers":[
		{
			"magFilter":9729,
			"minFilter":9987
		}
	],
	"buffers":[
		{
			"byteLength":806880,
			"uri":"data:application/octet-stream;base64,"
		}
	]
}
