{
	"asset":{
		"generator":"Khronos glTF Blender I/O v3.6.27",
		"version":"2.0"
	},
	"scene":0,
	"scenes":[
		{
			"name":"Scene",
			"nodes":[
				0
			]
		}
	],
	"nodes":[
		{
			"mesh":0,
			"name":"Male 68in 180lbs-A-pose",
			"rotation":[
				0.7071068286895752,
				0,
				0,
				0.7071068286895752
			],
			"scale":[
				3,
				3,
				3
			]
		}
	],
	"materials":[
		{
			"doubleSided":true,
			"name":"Material.002",
			"pbrMetallicRoughness":{
				"baseColorTexture":{
					"index":0
				},
				"metallicFactor":0,
				"roughnessFactor":0.5
			}
		}
	],
	"meshes":[
		{
			"name":"Male 68in 180lbs-A-pose",
			"primitives":[
				{
					"attributes":{
						"POSITION":0,
						"NORMAL":1,
						"TEXCOORD_0":2
					},
					"indices":3,
					"material":0
				}
			]
		}
	],
	"textures":[
		{
			"sampler":0,
			"source":0
		}
	],
	"images":[
		{
			"bufferView":4,
			"mimeType":"image/png",
			"name":"Supine"
		}
	],
	"accessors":[
		{
			"bufferView":0,
			"componentType":5126,
			"count":17127,
			"max":[
				0.5098090171813965,
				0.20190200209617615,
				0
			],
			"min":[
				-0.5105540156364441,
				-0.1496870070695877,
				-1.7232409715652466
			],
			"type":"VEC3"
		},
		{
			"bufferView":1,
			"componentType":5126,
			"count":17127,
			"type":"VEC3"
		},
		{
			"bufferView":2,
			"componentType":5126,
			"count":17127,
			"type":"VEC2"
		},
		{
			"bufferView":3,
			"componentType":5123,
			"count":62724,
			"type":"SCALAR"
		}
	],
	"bufferViews":[
		{
			"buffer":0,
			"byteLength":205524,
			"byteOffset":0,
			"target":34962
		},
		{
			"buffer":0,
			"byteLength":205524,
			"byteOffset":205524,
			"target":34962
		},
		{
			"buffer":0,
			"byteLength":137016,
			"byteOffset":411048,
			"target":34962
		},
		{
			"buffer":0,
			"byteLength":125448,
			"byteOffset":548064,
			"target":34963
		},
		{
			"buffer":0,
			"byteLength":93434,
			"byteOffset":673512
		}
	],
	"samplers":[
		{
			"magFilter":9729,
			"minFilter":9987
		}
	],
	"buffers":[
		{
			"byteLength":766948,
			"uri":"data:application/octet-stream;base64,"
		}
	]
}
