{
	"asset":{
		"generator":"Khronos glTF Blender I/O v3.6.27",
		"version":"2.0"
	},
	"scene":0,
	"scenes":[
		{
			"name":"Scene",
			"nodes":[
				0
			]
		}
	],
	"nodes":[
		{
			"mesh":0,
			"name":"Female 60in 130lbs",
			"rotation":[
				0.7071068286895752,
				0,
				0,
				0.7071068286895752
			],
			"scale":[
				3,
				3,
				3
			]
		}
	],
	"materials":[
		{
			"doubleSided":true,
			"name":"Material.002",
			"pbrMetallicRoughness":{
				"baseColorTexture":{
					"index":0
				},
				"metallicFactor":0,
				"roughnessFactor":0.5
			}
		}
	],
	"meshes":[
		{
			"name":"Female 60in 130lbs",
			"primitives":[
				{
					"attributes":{
						"POSITION":0,
						"NORMAL":1,
						"TEXCOORD_0":2
					},
					"indices":3,
					"material":0
				}
			]
		}
	],
	"textures":[
		{
			"sampler":0,
			"source":0
		}
	],
	"images":[
		{
			"bufferView":4,
			"mimeType":"image/png",
			"name":"Cross-Leg"
		}
	],
	"accessors":[
		{
			"bufferView":0,
			"componentType":5126,
			"count":17173,
			"max":[
				0.44668999314308167,
				0.1785700023174286,
				0
			],
			"min":[
				-0.447176992893219,
				-0.14702199399471283,
				-1.5254080295562744
			],
			"type":"VEC3"
		},
		{
			"bufferView":1,
			"componentType":5126,
			"count":17173,
			"type":"VEC3"
		},
		{
			"bufferView":2,
			"componentType":5126,
			"count":17173,
			"type":"VEC2"
		},
		{
			"bufferView":3,
			"componentType":5123,
			"count":62724,
			"type":"SCALAR"
		}
	],
	"bufferViews":[
		{
			"buffer":0,
			"byteLength":206076,
			"byteOffset":0,
			"target":34962
		},
		{
			"buffer":0,
			"byteLength":206076,
			"byteOffset":206076,
			"target":34962
		},
		{
			"buffer":0,
			"byteLength":137384,
			"byteOffset":412152,
			"target":34962
		},
		{
			"buffer":0,
			"byteLength":125448,
			"byteOffset":549536,
			"target":34963
		},
		{
			"buffer":0,
			"byteLength":108768,
			"byteOffset":674984
		}
	],
	"samplers":[
		{
			"magFilter":9729,
			"minFilter":9987
		}
	],
	"buffers":[
		{
			"byteLength":783752,
			"uri":"data:application/octet-stream;base64,"
		}
	]
}
