{
	"asset":{
		"generator":"Khronos glTF Blender I/O v3.6.27",
		"version":"2.0"
	},
	"scene":0,
	"scenes":[
		{
			"name":"Scene",
			"nodes":[
				0
			]
		}
	],
	"nodes":[
		{
			"mesh":0,
			"name":"Female 63in 275lbs",
			"rotation":[
				0.7071068286895752,
				0,
				0,
				0.7071068286895752
			],
			"scale":[
				3,
				3,
				3
			]
		}
	],
	"materials":[
		{
			"doubleSided":true,
			"name":"Material.001",
			"pbrMetallicRoughness":{
				"baseColorTexture":{
					"index":0
				},
				"metallicFactor":0,
				"roughnessFactor":0.5
			}
		}
	],
	"meshes":[
		{
			"name":"Female 63in 275lbs",
			"primitives":[
				{
					"attributes":{
						"POSITION":0,
						"NORMAL":1,
						"TEXCOORD_0":2
					},
					"indices":3,
					"material":0
				}
			]
		}
	],
	"textures":[
		{
			"sampler":0,
			"source":0
		}
	],
	"images":[
		{
			"bufferView":4,
			"mimeType":"image/png",
			"name":"Supine"
		}
	],
	"accessors":[
		{
			"bufferView":0,
			"componentType":5126,
			"count":17237,
			"max":[
				0.45669499039649963,
				0.26927000284194946,
				0
			],
			"min":[
				-0.4549869894981384,
				-0.19160500168800354,
				-1.6043369770050049
			],
			"type":"VEC3"
		},
		{
			"bufferView":1,
			"componentType":5126,
			"count":17237,
			"type":"VEC3"
		},
		{
			"bufferView":2,
			"componentType":5126,
			"count":17237,
			"type":"VEC2"
		},
		{
			"bufferView":3,
			"componentType":5123,
			"count":62724,
			"type":"SCALAR"
		}
	],
	"bufferViews":[
		{
			"buffer":0,
			"byteLength":206844,
			"byteOffset":0,
			"target":34962
		},
		{
			"buffer":0,
			"byteLength":206844,
			"byteOffset":206844,
			"target":34962
		},
		{
			"buffer":0,
			"byteLength":137896,
			"byteOffset":413688,
			"target":34962
		},
		{
			"buffer":0,
			"byteLength":125448,
			"byteOffset":551584,
			"target":34963
		},
		{
			"buffer":0,
			"byteLength":84534,
			"byteOffset":677032
		}
	],
	"samplers":[
		{
			"magFilter":9729,
			"minFilter":9987
		}
	],
	"buffers":[
		{
			"byteLength":761568,
			"uri":"data:application/octet-stream;base64,"
		}
	]
}
